<svg width="202" height="209" viewBox="0 0 202 209" fill="none" xmlns="http://www.w3.org/2000/svg">
<path opacity="0.5" d="M92.4255 64.702C92.4255 64.702 98.6911 57.3325 107.832 57.3325C107.832 57.3325 108.135 51.6143 114.373 50.3782C120.611 49.1421 121.821 54.8556 121.821 54.8556C121.821 54.8556 126.421 52.3456 132.622 54.8556C138.824 57.3656 137.554 64.6784 137.554 64.6784C137.554 64.6784 155.412 64.084 158.476 67.4384H78.2246C78.2246 67.4384 79.8439 63.3338 92.4255 64.702Z" stroke="#263238" stroke-linecap="round" stroke-linejoin="round"/>
<path d="M92.4255 64.702C92.4255 64.702 98.6911 57.3325 107.832 57.3325C107.832 57.3325 108.135 51.6143 114.373 50.3782C120.611 49.1421 121.821 54.8556 121.821 54.8556C121.821 54.8556 126.421 52.3456 132.622 54.8556C138.824 57.3656 137.554 64.6784 137.554 64.6784C137.554 64.6784 155.412 64.084 158.476 67.4384H78.2246C78.2246 67.4384 79.8439 63.3338 92.4255 64.702Z" stroke="#263238" stroke-linecap="round" stroke-linejoin="round"/>
<path opacity="0.5" d="M144.201 21.0072C144.201 21.0072 139.201 15.1333 131.914 15.1333C131.914 15.1333 131.67 10.5711 126.698 9.585C121.725 8.59894 120.754 13.1565 120.754 13.1565C120.754 13.1565 117.074 11.1561 112.142 13.1565C107.211 15.1569 108.205 20.9931 108.205 20.9931C108.205 20.9931 93.9439 20.5213 91.5195 23.1916H155.527C155.527 23.1916 154.235 19.9174 144.201 21.0072Z" stroke="#263238" stroke-linecap="round" stroke-linejoin="round"/>
<path d="M144.201 21.0072C144.201 21.0072 139.201 15.1333 131.914 15.1333C131.914 15.1333 131.67 10.5711 126.698 9.585C121.725 8.59894 120.754 13.1565 120.754 13.1565C120.754 13.1565 117.074 11.1561 112.142 13.1565C107.211 15.1569 108.205 20.9931 108.205 20.9931C108.205 20.9931 93.9439 20.5213 91.5195 23.1916H155.527C155.527 23.1916 154.235 19.9174 144.201 21.0072Z" stroke="#263238" stroke-linecap="round" stroke-linejoin="round"/>
<path opacity="0.5" d="M28.1689 41.4237C28.1689 41.4237 31.1361 37.9324 35.4695 37.9324C35.5511 37.1061 35.9004 36.3317 36.4616 35.733C37.0229 35.1343 37.7636 34.7458 38.5654 34.6298C41.5188 34.0447 42.0938 36.7481 42.0938 36.7481C42.9013 36.3898 43.7718 36.2049 44.6516 36.2049C45.5314 36.2049 46.4018 36.3898 47.2093 36.7481C50.1442 37.9371 49.5508 41.4048 49.5508 41.4048C49.5508 41.4048 58.0061 41.1217 59.4597 42.7117H21.4434C21.4434 42.7117 22.207 40.7726 28.1689 41.4237Z" stroke="#263238" stroke-linecap="round" stroke-linejoin="round"/>
<path d="M28.1689 41.4237C28.1689 41.4237 31.1361 37.9324 35.4695 37.9324C35.5511 37.1061 35.9004 36.3317 36.4616 35.733C37.0229 35.1343 37.7636 34.7458 38.5654 34.6298C41.5188 34.0447 42.0938 36.7481 42.0938 36.7481C42.9013 36.3898 43.7718 36.2049 44.6516 36.2049C45.5314 36.2049 46.4018 36.3898 47.2093 36.7481C50.1442 37.9371 49.5508 41.4048 49.5508 41.4048C49.5508 41.4048 58.0061 41.1217 59.4597 42.7117H21.4434C21.4434 42.7117 22.207 40.7726 28.1689 41.4237Z" stroke="#263238" stroke-linecap="round" stroke-linejoin="round"/>
<path opacity="0.5" d="M73.6279 122.105C73.6279 122.105 76.595 118.614 80.9285 118.614C81.0093 117.787 81.3583 117.012 81.9197 116.414C82.4811 115.815 83.2223 115.427 84.0244 115.311C86.9778 114.736 87.5574 117.425 87.5574 117.425C88.3649 117.067 89.2353 116.882 90.1151 116.882C90.995 116.882 91.8654 117.067 92.6729 117.425C95.6078 118.609 95.0144 122.082 95.0144 122.082C95.0144 122.082 103.47 121.798 104.923 123.388H66.9023C66.9023 123.388 67.666 121.454 73.6279 122.105Z" stroke="#263238" stroke-linecap="round" stroke-linejoin="round"/>
<path d="M73.6279 122.105C73.6279 122.105 76.595 118.614 80.9285 118.614C81.0093 117.787 81.3583 117.012 81.9197 116.414C82.4811 115.815 83.2223 115.427 84.0244 115.311C86.9778 114.736 87.5574 117.425 87.5574 117.425C88.3649 117.067 89.2353 116.882 90.1151 116.882C90.995 116.882 91.8654 117.067 92.6729 117.425C95.6078 118.609 95.0144 122.082 95.0144 122.082C95.0144 122.082 103.47 121.798 104.923 123.388H66.9023C66.9023 123.388 67.666 121.454 73.6279 122.105Z" stroke="#263238" stroke-linecap="round" stroke-linejoin="round"/>
<path d="M39.4445 77.8469L39.3985 70.4869C39.3815 70.2329 39.2711 69.995 39.0896 69.8212C38.9082 69.6474 38.6692 69.5508 38.4209 69.5508C38.1727 69.5508 37.9337 69.6474 37.7522 69.8212C37.5707 69.995 37.4604 70.2329 37.4434 70.4869V72.8978" stroke="#263238" stroke-linecap="round" stroke-linejoin="round"/>
<path d="M37.3875 79.8164L37.3691 82.5198" stroke="#263238" stroke-linecap="round" stroke-linejoin="round"/>
<path d="M39.8537 143.225L39.4902 85.293" stroke="#263238" stroke-linecap="round" stroke-linejoin="round"/>
<path d="M37.3372 87.6094L36.9922 143.225" stroke="#263238" stroke-linecap="round" stroke-linejoin="round"/>
<path d="M63.1773 82.9814L42.2876 78.4097L41.1376 80.0704L40.3049 79.9808L31.4679 58.2781C31.4077 58.129 31.2939 58.0095 31.15 57.9442C31.0061 57.879 30.8433 57.8731 30.6953 57.9277C30.5473 57.9824 30.4255 58.0934 30.3552 58.2377C30.2849 58.382 30.2715 58.5485 30.3178 58.7027L36.4269 79.6977L38.4004 79.9289L38.7132 80.6979L24.7101 99.3669C24.6243 99.4942 24.5874 99.6494 24.6064 99.8028C24.6255 99.9563 24.6991 100.097 24.8131 100.198C24.9272 100.299 25.0737 100.354 25.2245 100.351C25.3753 100.348 25.5197 100.288 25.6301 100.183L40.3785 84.3307L39.5965 82.4436L40.1163 81.7547L62.9933 84.2269C63.073 84.2393 63.1544 84.2355 63.2327 84.2156C63.311 84.1958 63.3847 84.1603 63.4496 84.1113C63.5145 84.0622 63.5694 84.0005 63.6111 83.9297C63.6528 83.8589 63.6804 83.7803 63.6925 83.6985C63.7046 83.6167 63.7009 83.5333 63.6815 83.453C63.6622 83.3727 63.6276 83.2971 63.5797 83.2305C63.5319 83.1639 63.4717 83.1077 63.4027 83.0649C63.3336 83.0222 63.257 82.9938 63.1773 82.9814V82.9814Z" stroke="#263238" stroke-linecap="round" stroke-linejoin="round"/>
<path d="M39.8539 81.3439C40.1842 81.3439 40.4519 81.0693 40.4519 80.7305C40.4519 80.3918 40.1842 80.1172 39.8539 80.1172C39.5236 80.1172 39.2559 80.3918 39.2559 80.7305C39.2559 81.0693 39.5236 81.3439 39.8539 81.3439Z" stroke="#263238" stroke-linecap="round" stroke-linejoin="round"/>
<path d="M58.6782 103.291L58.6414 97.4645C58.6414 97.2543 58.56 97.0527 58.415 96.904C58.2701 96.7554 58.0735 96.6719 57.8685 96.6719C57.6636 96.6719 57.467 96.7554 57.3221 96.904C57.1771 97.0527 57.0957 97.2543 57.0957 97.4645V99.3753" stroke="#263238" stroke-linecap="round" stroke-linejoin="round"/>
<path d="M57.0498 104.848L57.0352 106.98" stroke="#263238" stroke-linecap="round" stroke-linejoin="round"/>
<path d="M59.0001 155.005L58.7148 109.18" stroke="#263238" stroke-linecap="round" stroke-linejoin="round"/>
<path d="M57.0123 111.012L56.7363 155.007" stroke="#263238" stroke-linecap="round" stroke-linejoin="round"/>
<path d="M77.4665 107.365L60.9379 103.742L60.0178 105.058L59.3554 104.988L52.3676 87.8142C52.3462 87.752 52.3122 87.6951 52.2679 87.6473C52.2237 87.5994 52.1701 87.5615 52.1108 87.5362C52.0514 87.5109 51.9875 87.4986 51.9231 87.5001C51.8588 87.5017 51.7956 87.5171 51.7374 87.5453C51.6268 87.5935 51.5373 87.6815 51.4856 87.7927C51.4339 87.9039 51.4236 88.0307 51.4568 88.1492L56.2916 104.756L57.8511 104.94L58.0995 105.549L47.013 120.307C46.9294 120.407 46.888 120.537 46.8979 120.668C46.9079 120.8 46.9683 120.922 47.0659 121.008C47.1635 121.093 47.2903 121.136 47.4184 121.125C47.5465 121.115 47.6654 121.053 47.749 120.953L59.4106 108.413L58.7942 106.931L59.2036 106.384L77.3009 108.337C77.3646 108.348 77.4297 108.345 77.4921 108.328C77.5545 108.311 77.6127 108.281 77.663 108.24C77.7134 108.199 77.7546 108.147 77.7842 108.088C77.8137 108.029 77.8309 107.965 77.8346 107.899C77.8467 107.779 77.8161 107.659 77.7484 107.561C77.6807 107.463 77.5805 107.393 77.4665 107.365Z" stroke="#263238" stroke-linecap="round" stroke-linejoin="round"/>
<path d="M59.4962 105.569C59.4962 105.663 59.4692 105.754 59.4187 105.832C59.3681 105.909 59.2963 105.97 59.2122 106.005C59.1282 106.041 59.0357 106.05 58.9465 106.032C58.8572 106.014 58.7752 105.969 58.7109 105.903C58.6466 105.837 58.6028 105.753 58.585 105.661C58.5673 105.57 58.5764 105.475 58.6112 105.389C58.646 105.303 58.705 105.229 58.7806 105.177C58.8563 105.125 58.9452 105.098 59.0362 105.098C59.1582 105.098 59.2752 105.147 59.3615 105.236C59.4478 105.324 59.4962 105.444 59.4962 105.569Z" stroke="#263238" stroke-linecap="round" stroke-linejoin="round"/>
<path d="M159.594 77.8469L159.64 70.4869C159.657 70.2329 159.767 69.995 159.949 69.8212C160.13 69.6474 160.369 69.5508 160.617 69.5508C160.866 69.5508 161.105 69.6474 161.286 69.8212C161.467 69.995 161.578 70.2329 161.595 70.4869V72.8978" stroke="#263238" stroke-linecap="round" stroke-linejoin="round"/>
<path d="M161.65 79.8164L161.669 82.5198" stroke="#263238" stroke-linecap="round" stroke-linejoin="round"/>
<path d="M159.186 143.225L159.549 85.293" stroke="#263238" stroke-linecap="round" stroke-linejoin="round"/>
<path d="M161.701 87.6094L162.046 143.225" stroke="#263238" stroke-linecap="round" stroke-linejoin="round"/>
<path d="M135.861 82.9814L156.751 78.4097L157.901 80.0704L158.733 79.9808L167.57 58.2781C167.631 58.129 167.744 58.0095 167.888 57.9442C168.032 57.879 168.195 57.8731 168.343 57.9277C168.491 57.9824 168.613 58.0934 168.683 58.2377C168.753 58.382 168.767 58.5485 168.72 58.7027L162.611 79.6977L160.638 79.9289L160.325 80.6979L174.342 99.3575C174.428 99.4847 174.465 99.64 174.446 99.7934C174.427 99.9468 174.353 100.088 174.239 100.189C174.125 100.29 173.978 100.344 173.828 100.342C173.677 100.339 173.532 100.279 173.422 100.174L158.673 84.3213L159.456 82.4341L158.936 81.7453L136.059 84.2175C135.904 84.2337 135.748 84.1887 135.625 84.0916C135.501 83.9945 135.418 83.8526 135.393 83.6949C135.368 83.5372 135.402 83.3756 135.489 83.243C135.576 83.1104 135.709 83.0168 135.861 82.9814V82.9814Z" stroke="#263238" stroke-linecap="round" stroke-linejoin="round"/>
<path d="M159.184 81.3439C159.514 81.3439 159.782 81.0693 159.782 80.7305C159.782 80.3918 159.514 80.1172 159.184 80.1172C158.854 80.1172 158.586 80.3918 158.586 80.7305C158.586 81.0693 158.854 81.3439 159.184 81.3439Z" stroke="#263238" stroke-linecap="round" stroke-linejoin="round"/>
<path d="M140.361 103.291L140.398 97.4645C140.398 97.2543 140.48 97.0527 140.624 96.904C140.769 96.7554 140.966 96.6719 141.171 96.6719C141.376 96.6719 141.573 96.7554 141.717 96.904C141.862 97.0527 141.944 97.2543 141.944 97.4645V99.3753" stroke="#263238" stroke-linecap="round" stroke-linejoin="round"/>
<path d="M141.988 104.848L142.003 106.98" stroke="#263238" stroke-linecap="round" stroke-linejoin="round"/>
<path d="M140.039 155.005L140.324 109.18" stroke="#263238" stroke-linecap="round" stroke-linejoin="round"/>
<path d="M142.025 111.012L142.301 155.007" stroke="#263238" stroke-linecap="round" stroke-linejoin="round"/>
<path d="M121.572 107.365L138.1 103.742L139.02 105.058L139.683 104.988L146.671 87.8142C146.692 87.752 146.726 87.6951 146.77 87.6473C146.815 87.5994 146.868 87.5615 146.928 87.5362C146.987 87.5109 147.051 87.4986 147.115 87.5001C147.179 87.5017 147.243 87.5171 147.301 87.5453C147.412 87.5935 147.501 87.6815 147.553 87.7927C147.604 87.9039 147.615 88.0307 147.582 88.1492L142.747 104.756L141.187 104.94L140.939 105.549L152.025 120.307C152.109 120.407 152.15 120.537 152.14 120.668C152.13 120.8 152.07 120.922 151.972 121.008C151.875 121.093 151.748 121.136 151.62 121.125C151.492 121.115 151.373 121.053 151.289 120.953L139.628 108.413L140.244 106.931L139.835 106.384L121.737 108.337C121.674 108.348 121.609 108.345 121.546 108.328C121.484 108.311 121.426 108.281 121.375 108.24C121.325 108.199 121.284 108.147 121.254 108.088C121.225 108.029 121.207 107.965 121.204 107.899C121.192 107.779 121.222 107.659 121.29 107.561C121.358 107.463 121.458 107.393 121.572 107.365V107.365Z" stroke="#263238" stroke-linecap="round" stroke-linejoin="round"/>
<path d="M139.564 105.569C139.564 105.663 139.591 105.754 139.642 105.832C139.693 105.909 139.764 105.97 139.848 106.005C139.933 106.041 140.025 106.05 140.114 106.032C140.203 106.014 140.285 105.969 140.35 105.903C140.414 105.837 140.458 105.753 140.476 105.661C140.493 105.57 140.484 105.475 140.449 105.389C140.415 105.303 140.356 105.229 140.28 105.177C140.204 105.125 140.115 105.098 140.024 105.098C139.902 105.098 139.785 105.147 139.699 105.236C139.613 105.324 139.564 105.444 139.564 105.569Z" stroke="#263238" stroke-linecap="round" stroke-linejoin="round"/>
<path d="M1 136.345C1 136.345 1.89245 138.761 4.68019 142.479C8.28218 147.319 15.0905 154.363 27.295 161.119C48.8241 173.056 62.45 192.89 62.45 192.89L74.9764 151.943C74.9764 151.943 69.4056 151.528 61.5668 145.81C56.2167 141.955 49.8361 135.623 43.4602 125.329C27.6906 99.8942 11.1941 94.3789 11.1941 94.3789" fill="white"/>
<path opacity="0.4" d="M4.66602 142.48C8.2818 147.321 15.0902 154.365 27.2946 161.121C48.8237 173.058 62.4496 192.892 62.4496 192.892L74.9761 151.945C74.9761 151.945 69.4052 151.53 61.5664 145.811C55.149 145.632 41.8451 150.1 35.0506 156.833C35.0276 156.842 19.3316 148.68 4.66602 142.48Z" fill="#92E3A9"/>
<path d="M46.0859 151.293C46.0859 151.293 53.7453 158.077 58.0466 158.299" stroke="#263238" stroke-linecap="round" stroke-linejoin="round"/>
<path d="M23.6152 159.156C29.0757 161.879 37.0847 164.922 39.9967 166.479" stroke="#263238" stroke-linecap="round" stroke-linejoin="round"/>
<path d="M44.5547 127.164C46.0359 130.303 47.783 133.303 49.776 136.128" stroke="#263238" stroke-linecap="round" stroke-linejoin="round"/>
<path d="M1 136.345C1 136.345 1.89245 138.761 4.68019 142.479C8.28218 147.319 15.0905 154.363 27.295 161.119C48.8241 173.056 62.45 192.89 62.45 192.89L74.9764 151.943C74.9764 151.943 69.4056 151.528 61.5668 145.81C56.2167 141.955 49.8361 135.623 43.4602 125.329C27.6906 99.8942 11.1941 94.3789 11.1941 94.3789" stroke="#263238" stroke-linecap="round" stroke-linejoin="round"/>
<path d="M201 132.573C201 132.573 200.108 134.989 197.32 138.707C193.704 143.547 186.896 150.591 174.715 157.348C153.186 169.284 139.56 189.118 139.56 189.118L127.033 148.171C127.033 148.171 132.604 147.756 140.443 142.038C145.77 138.16 152.146 131.842 158.526 121.548C174.296 96.113 190.797 90.5977 190.797 90.5977" fill="white"/>
<path opacity="0.4" d="M197.334 138.707C193.718 143.548 186.91 150.592 174.728 157.348C153.199 169.284 139.573 189.119 139.573 189.119L127.047 148.171C127.047 148.171 132.618 147.756 140.457 142.038C146.874 141.859 158.296 144.897 164.024 154.305C164.024 154.309 182.668 144.906 197.334 138.707Z" fill="#92E3A9"/>
<path d="M148.02 140.438C148.02 140.438 144.28 146.67 134.615 150.581" stroke="#263238" stroke-linecap="round" stroke-linejoin="round"/>
<path d="M177.042 156.359C174.742 157.345 165.211 160.417 163.025 161.988" stroke="#263238" stroke-linecap="round" stroke-linejoin="round"/>
<path d="M158.66 126.232C158.66 126.232 160.836 118.211 164.024 113.352" stroke="#263238" stroke-linecap="round" stroke-linejoin="round"/>
<path d="M201 132.573C201 132.573 200.108 134.989 197.32 138.707C193.704 143.547 186.896 150.591 174.715 157.348C153.186 169.284 139.56 189.118 139.56 189.118L127.033 148.171C127.033 148.171 132.604 147.756 140.443 142.038C145.77 138.16 152.146 131.842 158.526 121.548C174.296 96.113 190.797 90.5977 190.797 90.5977" stroke="#263238" stroke-linecap="round" stroke-linejoin="round"/>
<path d="M85.1747 161.744L71.7282 163.4C71.7282 163.4 62.3391 166.335 60.0712 168.425C57.8033 170.515 54.8224 176.12 54.8224 176.12C54.8224 176.12 51.5194 176.761 49.8265 176.12C49.6365 176.066 49.4595 175.973 49.3067 175.845C49.1538 175.718 49.0285 175.559 48.9386 175.379C48.7228 174.852 48.5684 174.301 48.4786 173.737C48.2387 171.972 48.214 170.182 48.405 168.411C48.405 168.411 46.1969 165.174 46.1049 163.848C46.0129 162.523 46.4821 157.059 47.8162 155.531C47.8701 155.465 47.9302 155.405 47.9956 155.351C49.4677 154.143 57.8677 150.312 57.8677 150.312C57.8677 150.312 59.7584 147.401 64.3816 146.538C69.0049 145.675 78.9828 148.694 78.9828 148.694L80.4319 151.742L85.1747 161.744Z" fill="white"/>
<path opacity="0.4" d="M48.4884 173.75C48.2485 171.984 48.2237 170.195 48.4148 168.423C48.4148 168.423 46.2067 165.187 46.1147 163.861C46.0227 162.535 46.4919 157.072 47.826 155.543C46.2803 158.704 46.5885 163.521 48.746 161.988C51.3727 160.101 54.0823 163.941 54.0823 163.941C51.2163 165.465 49.1186 170.659 48.4884 173.75Z" fill="#92E3A9"/>
<path opacity="0.4" d="M85.1744 161.744L71.7279 163.4C71.7279 163.4 62.3388 166.334 60.0709 168.424C57.803 170.514 54.822 176.119 54.822 176.119C54.822 176.119 51.5191 176.761 49.8262 176.119C51.3811 175.648 53.6352 173.855 54.063 171.453C54.6702 168.037 60.2779 164.961 60.0663 162.315C59.8547 159.668 55.5535 155.351 55.5535 155.351C58.0744 154.789 60.3469 156.398 60.3469 156.398C59.3709 155.19 58.2141 154.149 56.9197 153.313C61.8558 152.765 62.8035 156.346 62.8035 156.346C64.1835 156.662 67.4037 155.351 67.4037 155.351C67.4202 154.069 67.7746 152.815 68.4295 151.723L70.0304 154.294C71.7739 154.294 77.6254 152.586 80.4086 151.742L85.1744 161.744Z" fill="#92E3A9"/>
<path d="M48.9394 175.399C49.6616 177.121 54.8185 176.125 54.8185 176.125C54.8185 176.125 57.804 170.516 60.072 168.426C62.3399 166.336 71.729 163.396 71.729 163.396L85.1755 161.745L78.9789 148.709C78.9789 148.709 69.001 145.694 64.3778 146.558C59.7545 147.421 57.8638 150.332 57.8638 150.332C57.8638 150.332 49.4638 154.158 47.9917 155.371C46.5197 156.583 45.9952 162.538 46.101 163.863C46.2068 165.189 48.4012 168.426 48.4012 168.426C48.4012 168.426 47.8859 172.894 48.9394 175.399Z" stroke="#263238" stroke-linecap="round" stroke-linejoin="round"/>
<path d="M49.1466 174.236C49.1466 174.236 49.9885 169.391 53.9815 167.631C53.9815 167.631 54.4001 164.744 53.3513 163.413C52.3024 162.083 49.2524 164.668 49.1466 167.631C49.0408 170.594 49.1466 174.236 49.1466 174.236Z" stroke="#263238" stroke-linecap="round" stroke-linejoin="round"/>
<path d="M57.8633 156.359C57.8633 156.359 64.8694 159.586 61.2077 167.612" stroke="#263238" stroke-linecap="round" stroke-linejoin="round"/>
<path d="M60.3477 154.852C60.3477 154.852 66.3004 160.117 61.9255 166.746" stroke="#263238" stroke-linecap="round" stroke-linejoin="round"/>
<path d="M68.4487 153.781C68.1135 156.109 68.1135 158.474 68.4487 160.802" stroke="#263238" stroke-linecap="round" stroke-linejoin="round"/>
<path d="M50.8308 161.988C50.8308 161.988 49.5704 162.606 48.7285 165.838" stroke="#263238" stroke-linecap="round" stroke-linejoin="round"/>
<path d="M49.7768 156.359C49.7768 156.359 47.9919 156.609 47.0488 160.233" stroke="#263238" stroke-linecap="round" stroke-linejoin="round"/>
<path d="M153.24 161.742C151.768 162.71 150.991 164.743 150.991 164.743C150.991 164.743 151.267 168.423 150.991 169.39C150.715 170.357 148.718 172.193 147.14 171.169C145.562 170.145 144.753 166.375 140.668 164.743L115.113 154.307C115.98 153.05 117.014 151.924 118.186 150.962C120.072 149.367 122.175 148.063 124.429 147.093C131.072 144.182 139.15 142.351 143.101 143.644C145.318 144.375 147.991 146.918 150.052 149.424C151.644 151.353 152.867 153.274 153.24 154.307C154.077 156.68 154.721 160.77 153.24 161.742Z" fill="white"/>
<path opacity="0.4" d="M153.24 161.744C151.768 162.711 150.991 164.745 150.991 164.745C150.991 164.745 151.267 168.425 150.991 169.392C150.715 170.359 148.718 172.194 147.14 171.17C145.562 170.147 144.753 166.377 140.668 164.745L115.113 154.308C115.98 153.051 117.014 151.925 118.186 150.963C121.687 150.963 126.296 151.303 130.073 152.907C130.073 152.907 129.816 149.996 131.288 150.326C131.288 150.326 130.915 147.382 132.502 147.236C134.089 147.09 133.717 148.18 133.717 148.18C133.717 148.18 133.717 151.147 135 151.747C136.284 152.346 135.529 148.251 137.995 147.68C137.995 147.68 138.133 152.294 139.577 153.789C139.577 153.789 137.935 158.654 140.175 161.065C142.416 163.475 146.616 166.349 147.536 166.254C148.456 166.16 145.061 161.961 145.061 161.961C145.061 161.961 145.125 157.682 147.701 156.842C150.278 156.002 152.518 158.154 152.518 158.154C152.128 155.136 151.303 152.194 150.071 149.425C151.662 151.355 152.886 153.275 153.258 154.308C154.077 156.682 154.721 160.772 153.24 161.744Z" fill="#92E3A9"/>
<path d="M115.109 154.306C115.109 154.306 117.782 149.999 124.429 147.092C131.077 144.186 139.15 142.351 143.102 143.644C147.053 144.936 152.399 151.938 153.222 154.306C154.046 156.675 154.694 160.77 153.222 161.742C151.75 162.714 150.977 164.738 150.977 164.738C150.977 164.738 151.253 168.422 150.977 169.39C150.701 170.357 148.705 172.192 147.132 171.168C145.558 170.145 144.74 166.375 140.655 164.738" stroke="#263238" stroke-linecap="round" stroke-linejoin="round"/>
<path d="M145.061 161.96C145.061 161.96 145.378 157.756 147.361 157.973C149.343 158.19 150.852 162.606 150.995 167.612C150.99 167.612 148.828 163.252 145.061 161.96Z" stroke="#263238" stroke-linecap="round" stroke-linejoin="round"/>
<path d="M138.533 163.393C138.533 163.393 136.233 155.816 141.155 152.91" stroke="#263238" stroke-linecap="round" stroke-linejoin="round"/>
<path d="M137.991 148.707C137.991 148.707 136.086 155.208 137.991 158.851C137.991 158.851 133.492 155.388 130.078 156.893" stroke="#263238" stroke-linecap="round" stroke-linejoin="round"/>
<path d="M134.021 156.84C134.021 156.84 133.372 154.306 133.478 152.91C133.584 151.513 131.762 149.89 132.461 148.168" stroke="#263238" stroke-linecap="round" stroke-linejoin="round"/>
<path d="M131.283 151.293C131.283 151.293 132.787 154.803 133.717 155.365" stroke="#263238" stroke-linecap="round" stroke-linejoin="round"/>
<path d="M134.613 159.589C134.613 159.589 136.509 158.73 137.994 159.589" stroke="#263238" stroke-linecap="round" stroke-linejoin="round"/>
<path d="M149.248 153.33C149.248 153.33 152.293 153.065 153.029 159.397" stroke="#263238" stroke-linecap="round" stroke-linejoin="round"/>
<path d="M104.477 107.872C104.477 107.872 97.149 103.541 103.152 87.8911C109.156 72.2416 127.202 67.4953 131.283 62.7773C131.283 62.7773 129.636 110.839 104.477 107.872Z" fill="#92E3A9"/>
<path opacity="0.3" d="M128.086 67.2695C126.025 71.2845 119.681 76.3516 112.712 88.5429C109.304 94.6407 106.467 101.056 104.238 107.703C103.13 106.863 98.6444 102.617 102.039 91.1897C102.173 95.2471 103.576 97.5259 103.576 97.5259C103.134 81.7443 128.086 67.2695 128.086 67.2695Z" fill="black" fill-opacity="0.7"/>
<path d="M104.477 107.872C104.477 107.872 97.149 103.541 103.152 87.8911C109.156 72.2416 127.202 67.4953 131.283 62.7773C131.283 62.7773 129.636 110.839 104.477 107.872Z" stroke="#263238" stroke-linecap="round" stroke-linejoin="round"/>
<path d="M105.153 88.543C105.153 88.543 104.012 96.9079 106.635 102.357L107.946 98.8706C107.946 98.8706 117.045 98.6206 121.774 92.6476" stroke="#263238" stroke-linecap="round" stroke-linejoin="round"/>
<path d="M110.132 81.4531C110.132 81.4531 108.067 89.2897 109.525 94.7673L110.132 92.0308C110.132 92.0308 121.536 89.0019 123.961 85.3926" stroke="#263238" stroke-linecap="round" stroke-linejoin="round"/>
<path d="M116.039 76.375C116.039 76.375 113.279 82.2206 113.343 87.0754L114.691 84.7164C114.691 84.7164 124.324 82.8292 126.026 79.7389" stroke="#263238" stroke-linecap="round" stroke-linejoin="round"/>
<path d="M121.775 71.3281C119.764 74.1589 117.377 80.5518 117.377 80.5518L119.576 77.9852C119.576 77.9852 125.013 76.532 127.047 73.8098" stroke="#263238" stroke-linecap="round" stroke-linejoin="round"/>
<path d="M95.7422 149.151C95.7422 149.151 98.8703 92.6488 125.418 71.3047C125.418 71.3047 100.789 92.1723 99.519 149.151H95.7422Z" fill="#92E3A9"/>
<path opacity="0.3" d="M95.7422 149.151C95.7422 149.151 98.8703 92.6488 125.418 71.3047C125.418 71.3047 100.789 92.1723 99.519 149.151H95.7422Z" fill="black" fill-opacity="0.7"/>
<path d="M95.7422 149.151C95.7422 149.151 98.8703 92.6488 125.418 71.3047C125.418 71.3047 100.789 92.1723 99.519 149.151H95.7422Z" stroke="#263238" stroke-linecap="round" stroke-linejoin="round"/>
<path d="M93.2577 90.2519C93.2577 90.2519 99.813 86.3785 94.44 72.3802C89.0669 58.382 72.9292 54.1358 69.2812 49.918C69.2813 49.918 70.7533 92.8893 93.2577 90.2519Z" fill="#92E3A9"/>
<path opacity="0.3" d="M94.4578 72.37C94.1716 71.6141 93.8254 70.8835 93.4227 70.1856C92.5993 68.7702 94.674 72.9645 94.7154 76.352C94.7452 77.1992 94.5872 78.0423 94.2533 78.8178C93.9194 79.5934 93.4184 80.2811 92.7879 80.8293C92.3739 78.6119 92.1484 76.2859 91.1134 74.2902C85.8415 64.0805 73.5313 54.8286 71.5762 53.3047C71.7878 53.5783 78.5271 62.2688 82.5155 67.2699C84.6547 69.9639 86.0761 73.3608 87.4838 76.4888C89.2687 80.4661 90.8696 84.5094 92.4567 88.5857C92.6775 89.1566 92.9167 89.7227 93.1237 90.2889C94.9086 89.1471 95.8838 87.0241 96.2979 84.9057C96.9787 81.287 96.1691 77.5456 95.042 74.0543C94.8626 73.4835 94.674 72.922 94.4578 72.37Z" fill="black" fill-opacity="0.7"/>
<path d="M93.2577 90.2519C93.2577 90.2519 99.813 86.3785 94.44 72.3802C89.0669 58.382 72.9292 54.1358 69.2812 49.918C69.2813 49.918 70.7533 92.8893 93.2577 90.2519Z" stroke="#263238" stroke-linecap="round" stroke-linejoin="round"/>
<path d="M92.6512 72.9648C92.6512 72.9648 93.6724 80.4428 91.3263 85.3165L90.1532 82.1979C90.1532 82.1979 82.0154 81.9762 77.7832 76.6354" stroke="#263238" stroke-linecap="round" stroke-linejoin="round"/>
<path d="M88.2021 66.6211C88.2021 66.6211 90.0422 73.632 88.7449 78.5293L88.2021 76.0806C88.2021 76.0806 77.9987 73.3725 75.832 70.1454" stroke="#263238" stroke-linecap="round" stroke-linejoin="round"/>
<path d="M82.9172 62.0586C82.9172 62.0586 85.3829 67.2908 85.3277 71.6314L84.1225 69.513C84.1225 69.513 75.5062 67.8428 74.002 65.0639" stroke="#263238" stroke-linecap="round" stroke-linejoin="round"/>
<path d="M77.783 57.5625C79.5863 60.1149 81.7208 65.8142 81.7208 65.8142L79.7381 63.5213C79.7381 63.5213 74.8757 62.2191 73.0586 59.7847" stroke="#263238" stroke-linecap="round" stroke-linejoin="round"/>
<path d="M99.9791 124.881C99.9791 124.881 98.277 76.6351 74.5352 57.5273C74.5352 57.5273 97.3937 78.5271 97.7296 132.567C97.7296 132.567 98.4748 132.718 98.875 131.472" fill="#92E3A9"/>
<path opacity="0.3" d="M99.9791 124.881C99.9791 124.881 98.277 76.6351 74.5352 57.5273C74.5352 57.5273 97.3937 78.5271 97.7296 132.567C97.7296 132.567 98.4748 132.718 98.875 131.472" fill="black" fill-opacity="0.7"/>
<path d="M99.9791 124.881C99.9791 124.881 98.277 76.6351 74.5352 57.5273C74.5352 57.5273 97.3937 78.527 97.7296 132.567C97.7296 132.567 98.4748 132.718 98.875 131.472" stroke="#263238" stroke-linecap="round" stroke-linejoin="round"/>
<path d="M61.59 168.706C61.59 168.706 60.0076 167.423 61.59 163.412C62.8045 160.341 66.7561 160.492 66.9723 157.279C68.5916 157.486 69.8843 156.387 70.7215 155.043C71.5588 153.698 72.235 152.084 73.6335 151.377C74.0935 151.16 74.5535 151.042 74.9767 150.811C76.6374 149.905 77.2125 147.456 79.0065 146.899C80.0646 146.569 81.3067 147.017 82.2773 146.512C83.248 146.008 83.7264 144.625 84.7799 144.153C85.2319 144.012 85.6931 143.903 86.1599 143.828C88.023 143.328 89.2237 140.997 91.1512 141.049C91.7078 141.073 92.3058 141.304 92.8027 141.049C93.1937 140.851 93.4283 140.393 93.8331 140.233C94.1815 140.148 94.5458 140.163 94.8866 140.275C95.9627 140.513 97.0834 140.418 98.1067 140.002C99.0268 139.572 99.2384 138.322 99.7996 138.039C102.031 136.911 104.533 141.304 105.826 142.403C106.58 143.049 107.431 141.398 108.411 141.436C109.304 141.474 109.759 142.889 110.642 142.776C110.233 143.106 110.468 143.837 110.918 144.106C111.4 144.313 111.919 144.414 112.441 144.404C113.711 144.54 114.856 145.224 115.96 145.89C116.158 145.988 116.332 146.131 116.466 146.31C116.6 146.517 116.627 146.781 116.765 146.984C117.055 147.404 117.727 147.456 117.943 147.9C118.011 148.139 118.051 148.386 118.063 148.636C118.205 149.334 119.01 149.65 119.705 149.702C120.4 149.754 121.145 149.669 121.738 150.046C122.149 150.393 122.522 150.783 122.851 151.212C124.231 152.585 125.832 152.509 127.107 154.245C128.441 156.062 129.342 158.048 131.247 159.36C134.467 161.582 135.387 164.714 136.266 167.625C137.144 170.536 124.664 177.783 99.4638 179.637C74.2637 181.492 61.2588 170.669 61.59 168.706Z" fill="#263238"/>
<path opacity="0.4" d="M85.1016 148.563C85.6628 148.714 86.4816 148.676 86.5506 148.091C86.5389 147.958 86.5482 147.824 86.5782 147.695C86.7254 147.346 87.2499 147.615 87.6133 147.53C87.8847 147.464 88.0503 147.19 88.2481 146.992C88.5015 146.753 88.8285 146.613 89.1722 146.596C89.516 146.578 89.8547 146.685 90.1296 146.897C90.447 147.162 90.6586 147.567 91.0221 147.756C91.7029 148.105 92.8208 147.714 93.0738 148.445" stroke="white" stroke-linecap="round" stroke-linejoin="round"/>
<path opacity="0.4" d="M94.8047 152.246C94.9622 152.349 95.1404 152.415 95.326 152.438C95.5117 152.461 95.6999 152.44 95.8768 152.378C96.0537 152.316 96.2147 152.214 96.3476 152.079C96.4806 151.944 96.5822 151.78 96.6448 151.599C96.6954 151.411 96.7138 151.189 96.8702 151.071C97.1094 150.896 97.4314 151.132 97.7258 151.161C98.3101 151.222 98.6459 150.524 99.0277 150.075C99.2593 149.81 99.5558 149.612 99.8866 149.503C100.218 149.393 100.571 149.377 100.91 149.454C101.249 149.531 101.562 149.7 101.817 149.943C102.072 150.186 102.258 150.494 102.358 150.835L105.827 151.779" stroke="white" stroke-linecap="round" stroke-linejoin="round"/>
<path opacity="0.4" d="M100.738 144.753C101.333 144.559 101.955 144.468 102.578 144.484C102.496 144.286 102.478 144.066 102.527 143.856C102.576 143.647 102.689 143.459 102.849 143.32C103.009 143.181 103.209 143.098 103.418 143.083C103.628 143.069 103.836 143.123 104.014 143.239C104.161 143.101 104.335 142.997 104.524 142.934C104.714 142.871 104.914 142.85 105.112 142.872C105.31 142.894 105.501 142.96 105.673 143.063C105.844 143.167 105.992 143.308 106.107 143.475L106.245 144.069C107.151 144.377 107.992 144.857 108.724 145.485" stroke="white" stroke-linecap="round" stroke-linejoin="round"/>
<path opacity="0.4" d="M110.367 149.188L111.287 149.466C111.135 149.221 111.421 148.919 111.701 148.862C111.982 148.863 112.261 148.813 112.525 148.716C112.801 148.546 112.884 148.188 113.063 147.914C113.242 147.64 113.693 147.485 113.845 147.772C113.808 147.471 114.135 147.225 114.434 147.235C114.734 147.275 115.016 147.403 115.248 147.603L117.603 149.282" stroke="white" stroke-linecap="round" stroke-linejoin="round"/>
<path d="M53.9076 176.121C53.9076 176.121 56.5712 171.294 60.072 168.426C63.5727 165.557 66.0937 161.872 69.1758 157.966C72.258 154.059 76.7386 149.106 78.9789 148.709C81.2193 148.313 86.2611 149.054 86.8223 153.781C86.8223 153.781 90.2495 149.535 95.0476 152.507C99.8456 155.479 97.4627 161.099 97.4627 161.099C97.4627 161.099 99.2108 160.381 100.296 161.099C101.382 161.816 104.473 199.838 104.473 199.838C102.704 200.293 100.969 200.883 99.2844 201.602C96.6255 202.749 93.2627 202.895 91.004 201.602C91.004 201.602 86.804 202.716 84.0024 202.518C81.2009 202.32 73.6381 202.178 70.9791 201.456C68.0502 200.588 65.1985 199.465 62.4549 198.102C60.4539 196.931 58.8052 195.219 57.689 193.153C56.8518 191.407 55.3107 190.836 52.9278 187.892C50.5449 184.948 53.9076 176.121 53.9076 176.121Z" fill="white"/>
<path opacity="0.4" d="M100.297 161.098C99.2482 160.41 97.583 161.051 97.468 161.098C97.6759 160.562 97.83 160.006 97.928 159.438L95.0528 165.651C95.0528 165.651 90.6044 171.586 89.0127 174.247C87.421 176.908 88.7827 177.187 86.8276 181.423C84.8725 185.66 82.0112 193.766 78.9842 194.422C75.9572 195.077 69.5261 192.822 68.33 189.647C67.134 186.472 70.0183 184.231 73.5559 179.631C77.0935 175.031 78.561 173.309 78.2804 171.176C77.9997 169.044 85.1807 156.192 85.6407 155.409C85.4521 155.663 84.3435 157.187 82.9542 159.07C83.5757 157.879 84.1108 156.642 84.5551 155.371L77.9353 152.512C77.9353 152.512 71.426 159.617 74.9268 162.335C76.8497 163.83 78.7542 163.854 80.5253 162.335C79.1452 164.189 77.7881 165.911 77.0291 166.76C74.9268 169.119 74.5036 171.737 73.5605 173.285C72.6175 174.832 68.8729 181.258 65.6435 183.58C62.4141 185.901 60.505 186.538 57.8737 185.085C56.0796 184.089 54.9663 178.626 54.4327 175.262C54.0969 175.804 53.9175 176.135 53.9175 176.135C53.9175 176.135 50.5593 184.957 52.9422 187.901C55.3252 190.845 56.8616 191.416 57.6989 193.162C58.8164 195.22 60.4591 196.928 62.4509 198.102C65.2031 199.465 68.0623 200.589 70.9982 201.461C73.6571 202.173 81.2199 202.319 84.0215 202.518C86.823 202.716 91.023 201.602 91.023 201.602C93.2633 202.895 96.6215 202.753 99.3034 201.602C100.842 200.949 102.42 200.399 104.028 199.956C104.175 199.762 104.313 199.559 104.46 199.356C104.078 194.964 101.314 161.773 100.297 161.098Z" fill="#92E3A9"/>
<path opacity="0.4" d="M89.1687 155.363C89.1687 155.363 82.4983 163.285 87.0986 166.743C91.6988 170.201 96.6809 163.61 96.8971 158.152L89.1687 155.363Z" fill="#92E3A9"/>
<path d="M104.478 199.838L104.018 199.956C102.41 200.399 100.832 200.949 99.2937 201.602C96.6301 202.754 93.272 202.895 91.0132 201.602C91.0132 201.602 86.8132 202.721 84.0117 202.518C81.2101 202.315 73.6473 202.173 70.9884 201.461C68.0556 200.588 65.1996 199.465 62.4504 198.102C60.4533 196.925 58.8071 195.213 57.6891 193.148C56.8519 191.402 55.3108 190.836 52.9325 187.887C50.5541 184.939 53.9077 176.121 53.9077 176.121C53.9077 176.121 54.0871 175.79 54.4229 175.248C55.343 173.724 57.4867 170.53 60.072 168.426C63.5728 165.548 66.0937 161.872 69.1759 157.966C72.2581 154.059 76.7387 149.106 78.979 148.709C81.2193 148.313 86.2612 149.054 86.8224 153.781C86.8224 153.781 90.2496 149.535 95.0477 152.507C98.1896 154.465 98.2678 157.546 97.9228 159.433C97.8249 160.001 97.6707 160.558 97.4628 161.094C97.5778 161.051 99.2431 160.41 100.292 161.094C101.341 161.778 104.073 194.96 104.432 199.352C104.46 199.668 104.478 199.838 104.478 199.838Z" stroke="#263238" stroke-linecap="round" stroke-linejoin="round"/>
<path d="M86.8212 153.781C85.2801 155.065 76.8754 171.332 75.3206 173.271C73.7657 175.21 69.4369 180.735 67.5462 182.768C66.2138 184.318 65.0834 186.039 64.1834 187.887C62.9777 189.131 61.6796 190.276 60.3008 191.313" stroke="#263238" stroke-linecap="round" stroke-linejoin="round"/>
<path d="M97.4632 161.098C96.1003 163.466 94.8715 165.912 93.783 168.425C92.4029 171.76 88.4605 180.272 86.8182 183.522C85.1759 186.773 82.5446 194.185 80.6539 195.374C78.7632 196.563 76.0306 199.252 74.3516 199.035" stroke="#263238" stroke-linecap="round" stroke-linejoin="round"/>
<path d="M75.8275 199.986C75.8275 199.986 75.3675 198.929 75.8275 198.684" stroke="#263238" stroke-linecap="round" stroke-linejoin="round"/>
<path d="M92.2051 200.507C92.2051 200.507 95.9911 196.794 96.5155 194.081C97.0399 191.368 104.474 170.02 104.474 170.02" stroke="#263238" stroke-linecap="round" stroke-linejoin="round"/>
<path d="M77.9257 152.507C77.9257 152.507 82.2361 152.219 84.5455 155.366C84.5455 155.366 81.0769 164.222 76.8769 161.971C72.6768 159.721 77.9257 152.507 77.9257 152.507Z" fill="white" stroke="#263238" stroke-linecap="round" stroke-linejoin="round"/>
<path d="M89.1683 155.365C89.1683 155.365 93.4972 155.209 96.8968 158.153C96.8968 158.153 94.6288 168.099 89.1683 166.589C83.7079 165.079 87.3789 158.573 89.1683 155.365Z" fill="white" stroke="#263238" stroke-linecap="round" stroke-linejoin="round"/>
<path d="M98.5158 163.863C98.5158 163.863 96.0961 167.6 96.4135 170.327C96.7309 173.054 100.296 172.549 100.296 172.549" stroke="#263238" stroke-linecap="round" stroke-linejoin="round"/>
<path d="M80.4453 173.27C80.4453 173.27 83.4171 175.525 86.2922 176.124" stroke="#263238" stroke-linecap="round" stroke-linejoin="round"/>
<path d="M55.5547 177.363C55.5547 177.363 55.9779 182.553 57.0268 184.365C58.0756 186.176 65.137 186.087 65.137 186.087" stroke="#263238" stroke-linecap="round" stroke-linejoin="round"/>
<path d="M66.8984 189.641C68.0685 191.76 69.8737 193.436 72.0461 194.42C75.7263 196.104 78.2748 195.364 78.2748 195.364" stroke="#263238" stroke-linecap="round" stroke-linejoin="round"/>
<path d="M84.5449 197.18C84.5449 197.18 90.1112 199.798 93.474 197.736" stroke="#263238" stroke-linecap="round" stroke-linejoin="round"/>
<path d="M69 164.738C69 164.738 70.1869 167.569 72.5882 168.22" stroke="#263238" stroke-linecap="round" stroke-linejoin="round"/>
<path d="M92.2051 182.766C93.3849 183.764 94.8575 184.327 96.3867 184.365" stroke="#263238" stroke-linecap="round" stroke-linejoin="round"/>
<path d="M145.359 185.872C145.359 185.872 141.997 192.118 138.427 193.845C134.857 195.572 131.913 194.926 129.815 196.204C127.718 197.483 124.143 198.143 119.313 199.007C114.483 199.87 109.616 200.946 106.165 200.299C104.971 200.065 103.817 199.648 102.743 199.063C100.423 197.747 98.3203 196.062 96.5141 194.072C94.7982 192.265 94.9454 189.354 96.1001 187.391C96.3505 186.913 96.6935 186.493 97.108 186.156C97.5226 185.82 97.9999 185.574 98.5106 185.433C98.5106 185.433 97.356 184.489 96.0541 183.296C94.6418 182.003 93.0685 180.408 92.6361 179.399C91.7897 177.46 92.0013 174.015 94.9362 170.996C95.7805 170.117 96.7977 169.432 97.92 168.987C99.0423 168.542 100.244 168.347 101.446 168.415C101.446 168.415 96.9465 164.641 98.713 160.225C99.3525 158.63 100.493 156.521 103.967 155.917C108.939 155.054 111.741 157.965 111.741 157.965C111.741 157.965 110.954 152.907 115.969 151.832C120.983 150.756 131.913 158.942 134.02 160.022C135.533 160.796 137.907 162.57 140.138 163.98L140.672 164.32C141.288 164.697 141.891 165.042 142.448 165.316C145.047 167.255 145.833 170.317 147.144 171.171C147.514 171.384 147.935 171.485 148.359 171.462C148.783 171.438 149.191 171.291 149.536 171.038C149.624 171.175 149.707 171.307 149.776 171.435C150.82 173.374 153.341 181.588 145.359 185.872Z" fill="white"/>
<path opacity="0.4" d="M145.361 185.869C145.361 185.869 141.998 192.116 138.428 193.843C134.859 195.57 131.914 194.923 129.817 196.202C127.719 197.48 124.145 198.141 119.314 199.004C114.484 199.868 109.617 200.943 106.167 200.297C104.972 200.062 103.819 199.646 102.744 199.061C105.353 198.858 107.345 197.518 108.265 195.508C109.419 193.017 105.987 192.828 105.164 194.404C104.341 195.98 99.4091 195.414 100.279 194.404C101.148 193.395 99.4091 188.228 98.4936 187.535C98.1026 187.228 97.1136 187.256 96.0831 187.389C96.3335 186.911 96.6765 186.491 97.0911 186.154C97.5056 185.817 97.9829 185.571 98.4936 185.431C98.4936 185.431 97.339 184.487 96.0371 183.293L99.2573 185.251C99.2573 185.251 106.158 191.385 109.925 194.404C113.693 197.424 120.837 196.707 122.714 194.404C124.591 192.102 116.076 184.93 113.417 182.751C110.841 180.647 109.704 177.122 109.64 176.905C109.865 177.122 116.835 184.043 120.681 188.662C124.609 193.38 128.703 191.965 133.152 189.837C137.6 187.709 135.112 181.623 133.69 180.175C132.269 178.726 126.008 173.15 125.023 171.456C124.039 169.762 117.203 163.78 116.743 163.402C117.203 163.714 124.77 168.738 125.856 170.008C126.942 171.277 129.78 173.31 133.994 176.396C138.208 179.481 141.405 183.062 144.519 176.396C146.658 171.81 142.748 166.71 140.098 163.969L140.632 164.308C141.248 164.686 141.851 165.03 142.408 165.304C145.007 167.243 145.793 170.305 147.104 171.159C147.474 171.372 147.895 171.473 148.319 171.45C148.743 171.426 149.151 171.28 149.496 171.027C149.584 171.163 149.667 171.296 149.736 171.423C150.821 173.371 153.342 181.585 145.361 185.869Z" fill="#92E3A9"/>
<path opacity="0.4" d="M102.738 166.141C103.332 164.644 104.259 163.31 105.444 162.246C106.629 161.181 108.04 160.415 109.565 160.008C109.565 160.008 114.713 163.669 114.713 166.684C114.713 169.699 112.73 172.034 109.05 170.869C105.37 169.703 102.738 166.141 102.738 166.141Z" fill="#92E3A9"/>
<path opacity="0.4" d="M115.109 158.517C115.109 158.517 117.216 155.714 120.469 154.855C120.469 154.855 127.245 160.135 124.696 162.933C122.148 165.73 116.158 162.178 115.109 158.517Z" fill="#92E3A9"/>
<path opacity="0.4" d="M95.7422 179.295C95.7422 179.295 98.3367 175.134 102.15 174.016C102.15 174.016 110.031 178.578 106.038 182.168C102.045 185.759 96.6898 181.234 95.7422 179.295Z" fill="#92E3A9"/>
<path d="M145.361 185.872C145.361 185.872 141.998 192.118 138.428 193.845C134.858 195.572 131.914 194.926 129.816 196.204C127.719 197.483 124.144 198.143 119.314 199.007C114.484 199.87 109.617 200.946 106.167 200.299C102.716 199.653 99.4641 197.171 96.5061 194.072C93.9208 191.345 95.5631 186.084 98.5026 185.433C98.5026 185.433 93.4654 181.338 92.6281 179.399C91.7909 177.46 91.9933 174.015 94.9282 170.996C95.7725 170.117 96.7897 169.432 97.912 168.987C99.0343 168.542 100.236 168.347 101.438 168.415C101.438 168.415 96.9385 164.641 98.705 160.225C99.3445 158.63 100.485 156.521 103.959 155.917C108.931 155.054 111.733 157.965 111.733 157.965C111.733 157.965 110.946 152.907 115.961 151.832C120.975 150.756 131.914 158.942 134.021 160.022C135.654 160.862 138.299 162.853 140.673 164.32C141.289 164.697 141.892 165.042 142.449 165.316C145.048 167.255 145.834 170.317 147.146 171.171C147.515 171.384 147.937 171.485 148.36 171.462C148.784 171.438 149.192 171.291 149.538 171.038C149.625 171.175 149.708 171.307 149.777 171.435C150.821 173.374 153.342 181.588 145.361 185.872Z" stroke="#263238" stroke-linecap="round" stroke-linejoin="round"/>
<path d="M111.746 157.996C112.45 159.657 118.84 165.545 121.6 167.272C124.36 168.998 132.056 177.613 134.296 178.755C136.537 179.897 138.496 183.497 141.155 184.36" stroke="#263238" stroke-linecap="round" stroke-linejoin="round"/>
<path d="M101.455 168.426C105.305 171.728 109.648 177.329 111.746 178.909C113.844 180.49 118.609 185.948 120.712 188.675C122.814 191.402 124.212 193.271 132.474 194.422" stroke="#263238" stroke-linecap="round" stroke-linejoin="round"/>
<path d="M135.4 186.09C135.4 186.09 134.843 191.28 127.119 192.266" stroke="#263238" stroke-linecap="round" stroke-linejoin="round"/>
<path d="M144.662 171.168C144.662 171.168 146.759 177.325 141.156 179.623" stroke="#263238" stroke-linecap="round" stroke-linejoin="round"/>
<path d="M98.5156 185.441C98.5156 185.441 103.949 190.107 106.166 191.4C108.383 192.693 111.327 196.142 113.568 196.859C115.034 197.275 116.582 197.275 118.048 196.859" stroke="#263238" stroke-linecap="round" stroke-linejoin="round"/>
<path d="M123.854 191.879C123.276 192.873 122.509 193.737 121.6 194.422" stroke="#263238" stroke-linecap="round" stroke-linejoin="round"/>
<path d="M101.455 165.297C102.047 163.799 102.972 162.464 104.158 161.399C105.344 160.334 106.756 159.568 108.282 159.164C108.282 159.164 113.429 162.825 113.429 165.845C113.429 168.864 111.442 171.19 107.762 170.025C104.082 168.859 101.455 165.297 101.455 165.297Z" fill="white" stroke="#263238" stroke-linecap="round" stroke-linejoin="round"/>
<path d="M114.268 157.998C114.268 157.998 116.374 155.195 119.627 154.332C119.627 154.332 126.408 159.611 123.854 162.414C121.301 165.216 115.321 161.635 114.268 157.998Z" fill="white" stroke="#263238" stroke-linecap="round" stroke-linejoin="round"/>
<path d="M95.0469 178.549C95.0469 178.549 97.6368 174.383 101.455 173.27C101.455 173.27 109.331 177.832 105.342 181.422C101.354 185.013 95.9945 180.488 95.0469 178.549Z" fill="white" stroke="#263238" stroke-linecap="round" stroke-linejoin="round"/>
<path d="M96.8965 192.062C96.8965 192.062 100.549 191.303 101.446 187.887C101.446 187.887 105.182 190.845 103.029 193.147C99.8636 196.539 96.8965 192.062 96.8965 192.062Z" fill="white" stroke="#263238" stroke-linecap="round" stroke-linejoin="round"/>
<path d="M128.869 169.392C129.509 169.029 130.06 168.519 130.479 167.904C130.897 167.288 131.173 166.582 131.284 165.84" stroke="#263238" stroke-linecap="round" stroke-linejoin="round"/>
<path d="M122.253 173.27C122.253 173.27 121.439 177.988 116.963 178.761" stroke="#263238" stroke-linecap="round" stroke-linejoin="round"/>
<path d="M111.02 184.367C111.02 184.367 109.18 187.099 106.475 187.887" stroke="#263238" stroke-linecap="round" stroke-linejoin="round"/>
<path d="M112.675 196.457C111.919 197.582 110.87 198.468 109.648 199.014" stroke="#263238" stroke-linecap="round" stroke-linejoin="round"/>
<path d="M115.978 197.18C116.025 197.502 116.009 197.83 115.93 198.145C115.851 198.461 115.71 198.756 115.518 199.015" stroke="#263238" stroke-linecap="round" stroke-linejoin="round"/>
<path d="M102.928 198.101C103.833 198.023 104.709 197.736 105.491 197.261C106.273 196.786 106.939 196.136 107.441 195.359" stroke="#263238" stroke-linecap="round" stroke-linejoin="round"/>
</svg>
